# Blender v2.79 (sub 0) OBJ File: ''
# www.blender.org
mtllib building1.mtl
o ST_Building_Shop_01_Untitled
v 1.701744 10.418497 2.195459
v 1.701744 11.418497 2.195459
v 1.206680 10.418497 2.195459
v 1.206680 11.418497 2.195459
v 1.206680 10.418497 0.772547
v 1.206680 11.418497 0.772547
v 1.701744 10.418497 0.772547
v 1.701744 11.418497 0.772547
v 3.645905 10.418497 2.195459
v 3.645905 11.418497 2.195459
v 3.150848 10.418497 2.195459
v 3.150848 11.418497 2.195459
v 3.150848 10.418497 0.772547
v 3.150848 11.418497 0.772547
v 3.645905 10.418497 0.772547
v 3.645905 11.418497 0.772547
v -2.726608 10.418498 -4.244165
v -2.726608 10.418497 -1.141482
v -2.844238 10.972252 -4.347155
v -2.844238 10.972251 -1.038492
v 3.011795 10.972252 -4.347155
v 3.011795 10.972251 -1.038492
v 2.894180 10.418498 -4.244165
v 2.894180 10.418497 -1.141482
v 3.011795 10.779518 -1.038492
v 3.011795 10.779519 -4.347155
v -2.844238 10.779519 -4.347155
v -2.844238 10.779518 -1.038492
v 2.894180 10.779530 -1.141482
v 2.894180 10.779531 -4.244165
v -2.726608 10.779531 -4.244165
v -2.726608 10.779530 -1.141482
v 1.433716 3.724456 2.724816
v 1.433716 0.336924 2.724815
v -1.433701 3.724456 2.724816
v -1.433685 0.336924 2.724815
v 0.068298 0.336924 2.724815
v 0.068298 3.724456 2.724816
v -0.068192 0.336924 2.724815
v -0.068192 3.724456 2.724816
v -0.444931 2.658625 2.724816
v -0.296371 2.658625 2.724816
v -0.444855 1.417630 2.724816
v -0.296371 1.417630 2.724816
v -1.328224 3.466349 2.724816
v -0.173271 3.466350 2.724816
v -1.328224 0.609903 2.724815
v -0.173271 0.609904 2.724815
v 0.296432 2.658625 2.724816
v 0.444801 2.658625 2.724816
v 0.296432 1.417630 2.724816
v 0.444801 1.417630 2.724816
v 0.173195 3.466351 2.724816
v 1.328140 3.466351 2.724816
v 0.173195 0.609905 2.724815
v 1.328140 0.609905 2.724815
v -1.433701 3.724456 3.263180
v -0.068192 3.724456 3.263180
v -1.433685 0.336924 3.263180
v 1.433716 3.724456 3.263180
v 1.433716 0.336924 3.263180
v 0.068298 3.724456 3.263180
v -5.007431 4.669936 3.263180
v -5.007347 0.336924 3.263180
v 5.007271 4.669936 3.263180
v 5.007271 0.336924 3.263180
v -5.007431 4.669938 -5.715659
v -5.007347 0.336925 -5.715660
v 5.007271 4.669938 -5.715659
v 5.007271 0.336925 -5.715660
v -5.007431 6.352318 3.263181
v 5.007271 6.352318 3.263181
v 5.007271 6.352319 -5.715659
v -5.007431 6.352319 -5.715659
v -5.007431 4.669936 4.168584
v 5.007271 4.669936 4.168584
v 5.007271 6.352318 4.168584
v -5.007431 6.352318 4.168584
v -5.007431 10.552773 3.263181
v 5.007271 10.552773 3.263181
v 5.007271 10.933169 -5.715658
v -5.007431 10.933169 -5.715658
v -5.007431 10.933167 3.263181
v 5.007271 10.933167 3.263181
v -5.007431 10.552773 3.952444
v 5.007271 10.552773 3.952444
v 5.007271 10.933167 3.952444
v -5.007431 10.933167 3.952444
v -4.709000 10.933167 3.078859
v 4.708916 10.933167 3.078859
v 4.708916 10.933169 -5.531328
v -4.709000 10.933169 -5.531328
v -4.709000 10.418496 3.078859
v 4.708916 10.418496 3.078859
v 4.708916 10.418498 -5.531328
v -4.709000 10.418498 -5.531328
v -1.504356 0.336924 3.540001
v -5.254120 0.336924 3.540001
v 1.504379 0.336924 3.540001
v 5.254111 0.336924 3.540001
v -5.254120 0.336926 -5.992481
v 5.254111 0.336926 -5.992481
v -1.504356 -0.000001 3.540001
v -5.254120 -0.000001 3.540001
v 1.504379 -0.000001 3.540001
v 5.254111 -0.000001 3.540001
v -5.254120 0.000001 -5.992481
v 5.254111 0.000001 -5.992481
v -4.753990 6.530643 3.263181
v 4.753876 6.530643 3.263181
v 4.753876 10.374449 3.263181
v -4.753990 10.374449 3.263181
v -4.753990 9.200481 3.263181
v -5.007431 9.082772 3.263181
v 5.007271 9.082772 3.263181
v 4.753876 9.200481 3.263181
v -4.753990 8.965065 3.263181
v 4.753876 8.965065 3.263181
v 3.395599 6.530643 3.263181
v 3.395599 8.965065 3.263181
v 3.395599 9.200480 3.263181
v 3.395599 10.374449 3.263181
v 3.160667 6.530643 3.263181
v 3.160667 8.965065 3.263181
v 3.160667 9.200480 3.263181
v 3.160667 10.374449 3.263181
v 0.110367 6.530643 3.263181
v 0.110367 8.965063 3.263181
v 0.110367 9.200480 3.263181
v 0.110367 10.374449 3.263181
v -0.110481 6.530643 3.263181
v -0.110481 8.965063 3.263181
v -0.110481 9.200480 3.263181
v -0.110481 10.374449 3.263181
v -3.160789 6.530643 3.263181
v -3.160789 8.965063 3.263181
v -3.160789 9.200480 3.263181
v -3.160789 10.374449 3.263181
v -3.395721 6.530643 3.263181
v -3.395721 8.965063 3.263181
v -3.395721 9.200480 3.263181
v -3.395721 10.374449 3.263181
v -0.025528 10.552773 3.263181
v 0.020409 6.352318 3.263181
v -2.190445 3.787381 3.263180
v -2.190430 1.182314 3.263180
v -4.394241 3.787381 3.263180
v -4.394196 1.182314 3.263180
v 2.190445 3.787381 3.263180
v 2.190445 1.182312 3.263180
v 4.394135 1.182312 3.263180
v 4.394135 3.787381 3.263180
vt 0.700536 0.483708
vt 0.700536 0.423130
vt 0.731534 0.423130
vt 0.731534 0.483708
vt 0.734723 0.422254
vt 0.790797 0.422254
vt 0.790797 0.499447
vt 0.734723 0.499447
vt 0.700536 0.483708
vt 0.700536 0.423130
vt 0.731534 0.423130
vt 0.731534 0.483708
vt 0.680157 0.496055
vt 0.680157 0.425265
vt 0.696554 0.425265
vt 0.696554 0.496055
vt 0.700254 0.423543
vt 0.731133 0.423543
vt 0.731133 0.454110
vt 0.700254 0.454110
vt 0.700536 0.483708
vt 0.700536 0.423130
vt 0.731534 0.423130
vt 0.731534 0.483708
vt 0.734723 0.422254
vt 0.790797 0.422254
vt 0.790797 0.499447
vt 0.734723 0.499447
vt 0.700536 0.483708
vt 0.700536 0.423130
vt 0.731534 0.423130
vt 0.731534 0.483708
vt 0.680157 0.496055
vt 0.680157 0.425265
vt 0.696554 0.425265
vt 0.696554 0.496055
vt 0.700254 0.423543
vt 0.731133 0.423543
vt 0.731133 0.454110
vt 0.700254 0.454110
vt 0.118970 0.264540
vt 0.111088 0.264540
vt 0.111088 0.264234
vt 0.118970 0.264234
vt 0.211788 0.272820
vt 0.196493 0.259276
vt 0.211788 0.259276
vt 0.110497 0.265191
vt 0.118379 0.265191
vt 0.118379 0.265498
vt 0.110497 0.265498
vt 0.077673 0.263059
vt 0.079024 0.263059
vt 0.079024 0.267456
vt 0.077673 0.267456
vt 0.079028 0.267611
vt 0.077677 0.267611
vt 0.077677 0.263214
vt 0.079028 0.263214
vt 0.134191 0.479271
vt 0.134191 0.478644
vt 0.134671 0.478644
vt 0.134671 0.479271
vt 0.108788 0.478419
vt 0.112191 0.480271
vt 0.109566 0.479122
vt 0.108788 0.479122
vt 0.112203 0.480271
vt 0.108788 0.479122
vt 0.109566 0.478419
vt 0.109566 0.479122
vt 0.196493 0.272820
vt 0.140707 0.477333
vt 0.140707 0.478432
vt 0.140428 0.478432
vt 0.140428 0.477333
vt 0.112191 0.480973
vt 0.112203 0.480973
vt 0.140127 0.478432
vt 0.140127 0.477333
vt 0.140405 0.477333
vt 0.140405 0.478432
vt 0.110934 0.480405
vt 0.110922 0.480405
vt 0.110922 0.481107
vt 0.110934 0.481107
vt 0.234068 0.480118
vt 0.234068 0.480118
vt 0.234068 0.480118
vt 0.234068 0.480118
vt 0.234068 0.480118
vt 0.234068 0.480118
vt 0.234068 0.480118
vt 0.234068 0.480118
vt 0.133015 0.473201
vt 0.133015 0.473201
vt 0.133015 0.473201
vt 0.133015 0.473201
vt 0.111790 0.480017
vt 0.111790 0.480017
vt 0.111790 0.480017
vt 0.111790 0.480017
vt 0.111790 0.480017
vt 0.111790 0.480017
vt 0.111790 0.480017
vt 0.111790 0.480017
vt 0.111790 0.480017
vt 0.111790 0.480017
vt 0.111790 0.480017
vt 0.111790 0.480017
vt 0.111790 0.480017
vt 0.111790 0.480017
vt 0.111790 0.480017
vt 0.111790 0.480017
vt 0.105469 0.127614
vt 0.105469 0.127614
vt 0.105469 0.127614
vt 0.105469 0.127614
vt 0.105469 0.127614
vt 0.105469 0.127614
vt 0.105469 0.127614
vt 0.105469 0.127614
vt 0.105469 0.127614
vt 0.105469 0.127614
vt 0.105469 0.127614
vt 0.105469 0.127614
vt 0.105469 0.127614
vt 0.105469 0.127614
vt 0.105469 0.127614
vt 0.105469 0.127614
vt 0.317407 0.331460
vt 0.317407 0.331460
vt 0.317407 0.331460
vt 0.317407 0.331460
vt 0.381076 0.329501
vt 0.381076 0.329501
vt 0.381076 0.329501
vt 0.381076 0.329501
vt 0.381076 0.329501
vt 0.381076 0.329501
vt 0.381076 0.329501
vt 0.381076 0.329501
vt 0.317407 0.331460
vt 0.317407 0.331460
vt 0.317407 0.331460
vt 0.317407 0.331460
vt 0.472172 0.330481
vt 0.472172 0.330481
vt 0.472172 0.330481
vt 0.096525 0.740156
vt 0.192016 0.740156
vt 0.192016 0.882204
vt 0.096525 0.882204
vt 0.096525 0.740156
vt 0.192016 0.740156
vt 0.192016 0.882204
vt 0.096525 0.882204
vt 0.472172 0.330481
vt 0.472172 0.330481
vt 0.472172 0.330481
vt 0.367363 0.328522
vt 0.367363 0.328522
vt 0.367363 0.328522
vt 0.367363 0.328522
vt 0.367363 0.328522
vt 0.367363 0.328522
vt 0.367363 0.328522
vt 0.367363 0.328522
vt 0.230908 0.483305
vt 0.230908 0.483305
vt 0.230908 0.483305
vt 0.230908 0.483305
vt 0.204062 0.445275
vt 0.204062 0.445275
vt 0.204062 0.445275
vt 0.204062 0.445275
vt 0.308871 0.447234
vt 0.308871 0.447234
vt 0.308871 0.447234
vt 0.308871 0.447234
vt 0.204062 0.445275
vt 0.204062 0.445275
vt 0.204062 0.445275
vt 0.204062 0.445275
vt 0.171454 0.440265
vt 0.171454 0.440265
vt 0.171454 0.440265
vt 0.171454 0.440265
vt 0.208802 0.441888
vt 0.208802 0.441888
vt 0.208802 0.441888
vt 0.208802 0.441888
vt 0.293529 0.445471
vt 0.293529 0.445471
vt 0.293529 0.445471
vt 0.293529 0.445471
vt 0.208802 0.441888
vt 0.208802 0.441888
vt 0.208802 0.441888
vt 0.208802 0.441888
vt 0.096525 0.740156
vt 0.192016 0.740156
vt 0.192016 0.882204
vt 0.096525 0.882204
vt 0.367363 0.328522
vt 0.367363 0.328522
vt 0.367363 0.328522
vt 0.367363 0.328522
vt 0.472172 0.330481
vt 0.472172 0.330481
vt 0.472172 0.330481
vt 0.472172 0.330481
vt 0.367363 0.328522
vt 0.367363 0.328522
vt 0.367363 0.328522
vt 0.367363 0.328522
vt 0.229939 0.445669
vt 0.229939 0.445669
vt 0.229939 0.445669
vt 0.229939 0.445669
vt 0.367363 0.328522
vt 0.367363 0.328522
vt 0.367363 0.328522
vt 0.367363 0.328522
vt 0.161738 0.442422
vt 0.161738 0.442422
vt 0.161738 0.442422
vt 0.199086 0.444046
vt 0.199086 0.444046
vt 0.199086 0.444046
vt 0.199086 0.444046
vt 0.294892 0.439174
vt 0.294892 0.439174
vt 0.294892 0.439174
vt 0.294892 0.439174
vt 0.199086 0.444046
vt 0.199086 0.444046
vt 0.199086 0.444046
vt 0.199086 0.444046
vt 0.472172 0.330481
vt 0.472172 0.330481
vt 0.472172 0.330481
vt 0.472172 0.330481
vt 0.472172 0.330481
vt 0.472172 0.330481
vt 0.167579 0.480057
vt 0.167579 0.480057
vt 0.167579 0.480057
vt 0.167579 0.480057
vt 0.167579 0.480057
vt 0.167579 0.480057
vt 0.167579 0.480057
vt 0.167579 0.480057
vt 0.472172 0.330481
vt 0.472172 0.330481
vt 0.472172 0.330481
vt 0.472172 0.330481
vt 0.238676 0.482693
vt 0.238676 0.482693
vt 0.238676 0.482693
vt 0.238676 0.482693
vt 0.238676 0.482693
vt 0.238676 0.482693
vt 0.238676 0.482693
vt 0.238676 0.482693
vt 0.238676 0.482693
vt 0.238676 0.482693
vt 0.238676 0.482693
vt 0.238676 0.482693
vt 0.238676 0.482693
vt 0.238676 0.482693
vt 0.238676 0.482693
vt 0.238676 0.482693
vt 0.197536 0.475836
vt 0.197536 0.475836
vt 0.197536 0.475836
vt 0.197536 0.475836
vt 0.197536 0.475836
vt 0.197536 0.475836
vt 0.197536 0.475836
vt 0.197536 0.475836
vt 0.197536 0.475836
vt 0.197536 0.475836
vt 0.197536 0.475836
vt 0.197536 0.475836
vt 0.472172 0.330481
vt 0.472172 0.330481
vt 0.472172 0.330481
vt 0.472172 0.330481
vt 0.472172 0.330481
vt 0.472172 0.330481
vt 0.472172 0.330481
vt 0.472172 0.330481
vt 0.472172 0.330481
vt 0.472172 0.330481
vt 0.472172 0.330481
vt 0.472172 0.330481
vt 0.472172 0.330481
vt 0.472172 0.330481
vt 0.472172 0.330481
vt 0.472172 0.330481
vt 0.472172 0.330481
vt 0.096525 0.740156
vt 0.192016 0.740156
vt 0.192016 0.882204
vt 0.096525 0.882204
vt 0.472172 0.330481
vt 0.472172 0.330481
vt 0.096525 0.740156
vt 0.192016 0.740156
vt 0.192016 0.882204
vt 0.096525 0.882204
vt 0.472172 0.330481
vt 0.472172 0.330481
vt 0.096525 0.740156
vt 0.192016 0.740156
vt 0.192016 0.882204
vt 0.096525 0.882204
vt 0.472172 0.330481
vt 0.472172 0.330481
vt 0.472172 0.330481
vt 0.472172 0.330481
vt 0.096525 0.740156
vt 0.192016 0.740156
vt 0.192016 0.882204
vt 0.096525 0.882204
vt 0.472172 0.330481
vt 0.472172 0.330481
vt 0.096525 0.740156
vt 0.192016 0.740156
vt 0.192016 0.882204
vt 0.096525 0.882204
vt 0.472172 0.330481
vt 0.472172 0.330481
vt 0.472172 0.330481
vt 0.472172 0.330481
vt 0.472172 0.330481
vt 0.472172 0.330481
vt 0.096525 0.740156
vt 0.192016 0.740156
vt 0.192016 0.882204
vt 0.096525 0.882204
vt 0.472172 0.330481
vt 0.472172 0.330481
vt 0.096525 0.740156
vt 0.192016 0.740156
vt 0.192016 0.882204
vt 0.096525 0.882204
vt 0.472172 0.330481
vt 0.472172 0.330481
vt 0.472172 0.330481
vt 0.472172 0.330481
vt 0.161738 0.442422
vt 0.161738 0.442422
vt 0.472172 0.330481
vt 0.293529 0.445471
vt 0.472172 0.330481
vt 0.472172 0.330481
vt 0.472172 0.330481
vt 0.472172 0.330481
vt 0.472172 0.330481
vt 0.472172 0.330481
vt 0.472172 0.330481
vt 0.472172 0.330481
vt 0.472172 0.330481
vt 0.472172 0.330481
vt 0.472172 0.330481
vt 0.472172 0.330481
vt 0.270176 0.444198
vt 0.264761 0.444198
vt 0.264761 0.444198
vt 0.270176 0.444198
vn 0.0000 -0.0000 1.0000
vn -1.0000 -0.0000 0.0000
vn 0.0000 0.0000 -1.0000
vn 0.0000 1.0000 0.0000
vn 1.0000 0.0000 0.0000
vn -0.0001 -1.0000 0.0001
vn -0.0001 -1.0000 -0.0001
vn -0.0000 -1.0000 -0.0001
vn -0.0000 -1.0000 0.0001
vn 0.0001 -1.0000 0.0001
vn 0.0001 -1.0000 -0.0001
vn 0.0000 -1.0000 0.0000
usemtl lambert43
s 1
f 1/1/1 2/2/1 4/3/1 3/4/1
f 3/5/2 4/6/2 6/7/2 5/8/2
f 5/9/3 6/10/3 8/11/3 7/12/3
f 2/13/4 8/14/4 6/15/4 4/16/4
f 8/17/5 2/18/5 1/19/5 7/20/5
f 9/21/1 10/22/1 12/23/1 11/24/1
f 11/25/2 12/26/2 14/27/2 13/28/2
f 13/29/3 14/30/3 16/31/3 15/32/3
f 10/33/4 16/34/4 14/35/4 12/36/4
f 16/37/5 10/38/5 9/39/5 15/40/5
f 27/41/2 28/42/2 20/43/2 19/44/2
f 21/45/4 20/46/4 22/47/4
f 21/48/5 22/49/5 25/50/5 26/51/5
f 28/52/1 25/53/1 22/54/1 20/55/1
f 26/56/3 27/57/3 19/58/3 21/59/3
f 26/60/6 25/61/7 29/62/8 30/63/9
f 30/64/9 31/65/9 27/66/10 26/67/6
f 31/65/9 32/68/8 28/69/11 27/66/10
f 32/68/8 29/70/8 25/71/7 28/69/11
f 19/72/4 20/46/4 21/45/4
f 23/73/3 17/74/3 31/75/3 30/76/3
f 17/77/2 18/78/2 32/68/2 31/65/2
f 18/79/1 24/80/1 29/81/1 32/82/1
f 30/83/5 29/84/5 24/85/5 23/86/5
f 42/87/1 41/88/1 43/89/1 44/90/1
f 50/91/1 49/92/1 51/93/1 52/94/1
f 38/95/1 40/96/1 39/97/1 37/98/1
f 46/99/1 45/100/1 41/101/1 42/102/1
f 45/100/1 47/103/1 43/104/1 41/101/1
f 47/103/1 48/105/1 44/106/1 43/104/1
f 48/105/1 46/99/1 42/102/1 44/106/1
f 54/107/1 53/108/1 49/109/1 50/110/1
f 53/108/1 55/111/1 51/112/1 49/109/1
f 55/111/1 56/113/1 52/114/1 51/112/1
f 56/113/1 54/107/1 50/110/1 52/114/1
f 40/115/1 35/116/1 45/117/1 46/118/1
f 35/116/1 36/119/1 47/120/1 45/117/1
f 36/119/1 39/121/1 48/122/1 47/120/1
f 39/121/1 40/115/1 46/118/1 48/122/1
f 33/123/1 38/124/1 53/125/1 54/126/1
f 38/124/1 37/127/1 55/128/1 53/125/1
f 37/127/1 34/129/1 56/130/1 55/128/1
f 34/129/1 33/123/1 54/126/1 56/130/1
f 35/131/12 40/132/12 58/133/12 57/134/12
f 36/135/5 35/136/5 57/137/5 59/138/5
f 33/139/2 34/140/2 61/141/2 60/142/2
f 38/143/12 33/144/12 60/145/12 62/146/12
f 62/146/12 58/133/12 40/132/12 38/143/12
f 57/147/1 58/148/1 63/149/1
f 146/150/1 145/151/1 147/152/1 148/153/1
f 149/154/1 150/155/1 151/156/1 152/157/1
f 62/158/1 60/159/1 65/160/1
f 65/160/1 63/149/1 58/148/1 62/158/1
f 64/161/2 63/162/2 67/163/2 68/164/2
f 65/165/5 66/166/5 70/167/5 69/168/5
f 95/169/4 96/170/4 93/171/4 94/172/4
f 65/173/5 69/174/5 73/175/5 72/176/5
f 69/177/3 67/178/3 74/179/3 73/180/3
f 67/181/2 63/182/2 71/183/2 74/184/2
f 76/185/12 75/186/12 63/187/12 65/188/12
f 65/189/5 72/190/5 77/191/5 76/192/5
f 72/193/4 144/194/4 78/195/4 77/196/4
f 71/197/2 63/198/2 75/199/2 78/200/2
f 109/201/1 139/202/1 140/203/1 117/204/1
f 72/205/5 73/206/5 81/207/5 115/208/5
f 73/209/3 74/210/3 82/211/3 81/212/3
f 74/213/2 71/214/2 114/215/2 82/216/2
f 87/217/1 88/218/1 85/219/1 86/220/1
f 80/221/5 81/207/5 84/222/5
f 82/216/2 79/223/2 83/224/2
f 143/225/12 85/226/12 79/227/12
f 80/228/5 84/229/5 87/230/5 86/231/5
f 84/232/4 83/233/4 88/234/4 87/235/4
f 83/236/2 79/237/2 85/238/2 88/239/2
f 90/240/4 89/241/4 83/242/4 84/243/4
f 84/243/4 81/212/4 91/244/4 90/240/4
f 81/212/4 82/211/4 92/245/4 91/244/4
f 82/211/4 83/242/4 89/241/4 92/245/4
f 94/246/3 93/247/3 89/248/3 90/249/3
f 90/249/2 91/250/2 95/251/2 94/246/2
f 91/250/1 92/252/1 96/253/1 95/251/1
f 92/252/5 89/248/5 93/247/5 96/253/5
f 68/254/3 67/255/3 69/256/3 70/257/3
f 34/258/4 37/259/4 61/260/4
f 39/261/4 59/262/4 61/260/4 37/259/4
f 39/261/4 36/263/4 59/262/4
f 59/262/4 64/264/4 98/265/4 97/266/4
f 66/267/4 61/260/4 99/268/4 100/269/4
f 64/264/4 68/270/4 101/271/4 98/265/4
f 70/272/4 66/267/4 100/269/4 102/273/4
f 101/271/4 68/270/4 70/272/4 102/273/4
f 59/262/4 97/266/4 99/268/4 61/260/4
f 97/274/1 98/275/1 104/276/1 103/277/1
f 100/278/1 99/279/1 105/280/1 106/281/1
f 98/275/2 101/282/2 107/283/2 104/276/2
f 102/284/5 100/278/5 106/281/5 108/285/5
f 108/285/3 107/283/3 101/282/3 102/284/3
f 97/274/1 103/277/1 105/280/1 99/279/1
f 119/286/1 123/287/1 72/288/1
f 72/288/1 115/289/1 118/290/1 110/291/1
f 142/292/1 79/293/1 112/294/1
f 114/295/1 71/296/1 109/297/1 117/298/1
f 79/293/1 114/295/1 113/299/1 112/294/1
f 82/216/2 114/215/2 79/223/2
f 115/208/5 81/207/5 80/221/5
f 116/300/1 115/289/1 80/301/1 111/302/1
f 113/303/1 141/304/1 142/305/1 112/306/1
f 114/295/1 117/298/1 113/299/1
f 118/290/1 115/289/1 116/300/1
f 117/298/1 140/307/1 141/308/1 113/299/1
f 120/309/1 119/310/1 110/311/1 118/312/1
f 121/313/1 120/314/1 118/290/1 116/300/1
f 122/315/1 121/316/1 116/317/1 111/318/1
f 124/319/1 123/287/1 119/286/1 120/314/1
f 125/320/1 124/319/1 120/314/1 121/313/1
f 126/321/1 125/320/1 121/313/1 122/322/1
f 128/323/1 127/324/1 123/325/1 124/326/1
f 129/327/1 128/328/1 124/319/1 125/320/1
f 130/329/1 129/330/1 125/331/1 126/332/1
f 132/333/1 131/334/1 127/335/1 128/328/1
f 133/336/1 132/333/1 128/328/1 129/327/1
f 134/337/1 133/336/1 129/327/1 130/338/1
f 136/339/1 135/340/1 131/341/1 132/342/1
f 137/343/1 136/344/1 132/333/1 133/336/1
f 138/345/1 137/346/1 133/347/1 134/348/1
f 140/307/1 139/349/1 135/350/1 136/344/1
f 141/308/1 140/307/1 136/344/1 137/343/1
f 142/292/1 141/308/1 137/343/1 138/351/1
f 80/301/1 143/352/1 130/338/1 126/321/1
f 130/338/1 143/352/1 134/337/1
f 86/353/12 85/226/12 143/225/12 80/354/12
f 134/337/1 143/352/1 79/293/1 138/351/1
f 138/351/1 79/293/1 142/292/1
f 80/301/1 126/321/1 122/322/1
f 80/301/1 122/322/1 111/302/1
f 71/296/1 135/350/1 139/349/1
f 119/286/1 72/288/1 110/291/1
f 72/288/1 123/287/1 127/335/1 144/355/1
f 71/296/1 139/349/1 109/297/1
f 144/355/1 131/334/1 135/350/1 71/296/1
f 144/355/1 127/335/1 131/334/1
f 78/195/4 144/194/4 71/356/4
f 59/357/1 57/147/1 145/358/1 146/359/1
f 57/147/1 63/149/1 147/360/1 145/358/1
f 63/149/1 64/361/1 148/362/1 147/360/1
f 64/361/1 59/357/1 146/359/1 148/362/1
f 60/159/1 61/363/1 150/364/1 149/365/1
f 61/363/1 66/366/1 151/367/1 150/364/1
f 66/366/1 65/160/1 152/368/1 151/367/1
f 65/160/1 60/159/1 149/365/1 152/368/1
f 77/369/1 78/370/1 75/371/1 76/372/1
