# Blender v2.79 (sub 0) OBJ File: ''
# www.blender.org
mtllib building2.mtl
o ST_Building_Shop_02_Untitled
v -2.726608 10.418498 -4.244165
v -2.726608 10.418497 -1.141482
v -2.844238 10.972252 -4.347155
v -2.844238 10.972251 -1.038492
v 3.011795 10.972252 -4.347155
v 3.011795 10.972251 -1.038492
v 2.894180 10.418498 -4.244165
v 2.894180 10.418497 -1.141482
v 3.011795 10.779518 -1.038492
v 3.011795 10.779519 -4.347155
v -2.844238 10.779519 -4.347155
v -2.844238 10.779518 -1.038492
v 2.894180 10.779530 -1.141482
v 2.894180 10.779531 -4.244165
v -2.726608 10.779531 -4.244165
v -2.726608 10.779530 -1.141482
v 1.433716 3.724456 2.724816
v 1.433716 0.336924 2.724815
v -1.433701 3.724456 2.724816
v -1.433685 0.336924 2.724815
v 0.068298 0.336924 2.724815
v 0.068298 3.724456 2.724816
v -0.068192 0.336924 2.724815
v -0.068192 3.724456 2.724816
v -0.444931 2.658625 2.724816
v -0.296371 2.658625 2.724816
v -0.444855 1.417630 2.724816
v -0.296371 1.417630 2.724816
v -1.328224 3.466349 2.724816
v -0.173271 3.466350 2.724816
v -1.328224 0.609903 2.724815
v -0.173271 0.609904 2.724815
v 0.296432 2.658625 2.724816
v 0.444801 2.658625 2.724816
v 0.296432 1.417630 2.724816
v 0.444801 1.417630 2.724816
v 0.173195 3.466351 2.724816
v 1.328140 3.466351 2.724816
v 0.173195 0.609905 2.724815
v 1.328140 0.609905 2.724815
v -1.433701 3.724456 3.263180
v -0.068192 3.724456 3.263180
v -1.433685 0.336924 3.263180
v 1.433716 3.724456 3.263180
v 1.433716 0.336924 3.263180
v 0.068298 3.724456 3.263180
v -5.007431 4.669936 3.263180
v -5.007347 0.336924 3.263180
v 5.007271 4.669936 3.263180
v 5.007271 0.336924 3.263180
v -5.007431 4.669938 -5.715659
v -5.007347 0.336925 -5.715660
v 5.007271 4.669938 -5.715659
v 5.007271 0.336925 -5.715660
v -5.007431 6.352318 3.263181
v 5.007271 6.352318 3.263181
v 5.007271 6.352319 -5.715659
v -5.007431 6.352319 -5.715659
v -5.007431 4.669936 4.168584
v 5.007271 4.669936 4.168584
v 5.007271 6.352318 4.168584
v -5.007431 6.352318 4.168584
v -5.007431 10.552773 3.263181
v 5.007271 10.552773 3.263181
v 5.007271 10.933169 -5.715658
v -5.007431 10.933169 -5.715658
v -5.007431 10.933167 3.263181
v 5.007271 10.933167 3.263181
v -5.007431 10.552773 3.952444
v 5.007271 10.552773 3.952444
v 5.007271 10.933167 3.952444
v -5.007431 10.933167 3.952444
v -4.709000 10.933167 3.078859
v 4.708916 10.933167 3.078859
v 4.708916 10.933169 -5.531328
v -4.709000 10.933169 -5.531328
v -4.709000 10.418496 3.078859
v 4.708916 10.418496 3.078859
v 4.708916 10.418498 -5.531328
v -4.709000 10.418498 -5.531328
v -1.504356 0.336924 3.540001
v -5.254120 0.336924 3.540001
v 1.504379 0.336924 3.540001
v 5.254111 0.336924 3.540001
v -5.254120 0.336926 -5.992481
v 5.254111 0.336926 -5.992481
v -1.504356 -0.000001 3.540001
v -5.254120 -0.000001 3.540001
v 1.504379 -0.000001 3.540001
v 5.254111 -0.000001 3.540001
v -5.254120 0.000001 -5.992481
v 5.254111 0.000001 -5.992481
v -4.753990 6.530643 3.263181
v 4.753876 6.530643 3.263181
v 4.753876 10.374449 3.263181
v -4.753990 10.374449 3.263181
v -4.753990 9.200481 3.263181
v -5.007431 9.082772 3.263181
v 5.007271 9.082772 3.263181
v 4.753876 9.200481 3.263181
v -4.753990 8.965065 3.263181
v 4.753876 8.965065 3.263181
v 3.395599 6.530643 3.263181
v 3.395599 8.965065 3.263181
v 3.395599 9.200480 3.263181
v 3.395599 10.374449 3.263181
v 3.160667 6.530643 3.263181
v 3.160667 8.965065 3.263181
v 3.160667 9.200480 3.263181
v 3.160667 10.374449 3.263181
v 0.110367 6.530643 3.263181
v 0.110367 8.965063 3.263181
v 0.110367 9.200480 3.263181
v 0.110367 10.374449 3.263181
v -0.110481 6.530643 3.263181
v -0.110481 8.965063 3.263181
v -0.110481 9.200480 3.263181
v -0.110481 10.374449 3.263181
v -3.160789 6.530643 3.263181
v -3.160789 8.965063 3.263181
v -3.160789 9.200480 3.263181
v -3.160789 10.374449 3.263181
v -3.395721 6.530643 3.263181
v -3.395721 8.965063 3.263181
v -3.395721 9.200480 3.263181
v -3.395721 10.374449 3.263181
v -0.025528 10.552773 3.263181
v 0.020409 6.352318 3.263181
v -2.190445 3.787381 3.263180
v -2.190430 1.182314 3.263180
v -4.394241 3.787381 3.263180
v -4.394196 1.182314 3.263180
v 2.190445 3.787381 3.263180
v 2.190445 1.182312 3.263180
v 4.394135 1.182312 3.263180
v 4.394135 3.787381 3.263180
v -4.596414 9.333493 3.263181
v -3.553298 9.333491 3.263181
v -3.553298 10.241437 3.263181
v -4.596414 10.241437 3.263181
v 3.574723 10.241437 3.263181
v 3.574723 9.333491 3.263181
v 4.574752 9.333493 3.263181
v 4.574752 10.241437 3.263181
v 0.330170 10.241437 3.263181
v 0.330170 9.333491 3.263181
v 2.940864 9.333491 3.263181
v 2.940864 10.241437 3.263181
v -2.924128 10.241437 3.263181
v -2.924128 9.333491 3.263181
v -0.347143 9.333491 3.263181
v -0.347143 10.241437 3.263181
v -4.596414 6.748716 3.263181
v -3.553298 6.748716 3.263181
v -3.553298 8.746991 3.263181
v -4.596414 8.746993 3.263181
v 3.574723 8.746993 3.263181
v 3.574723 6.748715 3.263181
v 4.574752 6.748715 3.263181
v 4.574752 8.746993 3.263181
v 0.330170 8.746991 3.263181
v 0.330170 6.748715 3.263181
v 2.940864 6.748715 3.263181
v 2.940864 8.746993 3.263181
v -2.924128 8.746991 3.263181
v -2.924128 6.748715 3.263181
v -0.347143 6.748715 3.263181
v -0.347143 8.746991 3.263181
v -2.389508 1.417639 3.263180
v -2.389521 3.552055 3.263180
v -4.195163 3.552055 3.263180
v -4.195125 1.417639 3.263180
v 2.362382 3.584127 3.263180
v 2.362382 1.385566 3.263180
v 4.222198 1.385566 3.263180
v 4.222198 3.584127 3.263180
vt 0.118970 0.264540
vt 0.111088 0.264540
vt 0.111088 0.264234
vt 0.118970 0.264234
vt 0.211788 0.272820
vt 0.196493 0.259276
vt 0.211788 0.259276
vt 0.110497 0.265191
vt 0.118379 0.265191
vt 0.118379 0.265498
vt 0.110497 0.265498
vt 0.077673 0.263059
vt 0.079024 0.263059
vt 0.079024 0.267456
vt 0.077673 0.267456
vt 0.079028 0.267611
vt 0.077677 0.267611
vt 0.077677 0.263214
vt 0.079028 0.263214
vt 0.134191 0.479271
vt 0.134191 0.478644
vt 0.134671 0.478644
vt 0.134671 0.479271
vt 0.108788 0.478419
vt 0.112191 0.480271
vt 0.109566 0.479122
vt 0.108788 0.479122
vt 0.112203 0.480271
vt 0.108788 0.479122
vt 0.109566 0.478419
vt 0.109566 0.479122
vt 0.196493 0.272820
vt 0.140707 0.477333
vt 0.140707 0.478432
vt 0.140428 0.478432
vt 0.140428 0.477333
vt 0.112191 0.480973
vt 0.112203 0.480973
vt 0.140127 0.478432
vt 0.140127 0.477333
vt 0.140405 0.477333
vt 0.140405 0.478432
vt 0.110934 0.480405
vt 0.110922 0.480405
vt 0.110922 0.481107
vt 0.110934 0.481107
vt 0.234068 0.480118
vt 0.234068 0.480118
vt 0.234068 0.480118
vt 0.234068 0.480118
vt 0.234068 0.480118
vt 0.234068 0.480118
vt 0.234068 0.480118
vt 0.234068 0.480118
vt 0.133015 0.473201
vt 0.133015 0.473201
vt 0.133015 0.473201
vt 0.133015 0.473201
vt 0.111790 0.480017
vt 0.111790 0.480017
vt 0.111790 0.480017
vt 0.111790 0.480017
vt 0.111790 0.480017
vt 0.111790 0.480017
vt 0.111790 0.480017
vt 0.111790 0.480017
vt 0.111790 0.480017
vt 0.111790 0.480017
vt 0.111790 0.480017
vt 0.111790 0.480017
vt 0.111790 0.480017
vt 0.111790 0.480017
vt 0.111790 0.480017
vt 0.111790 0.480017
vt 0.105469 0.127614
vt 0.105469 0.127614
vt 0.105469 0.127614
vt 0.105469 0.127614
vt 0.105469 0.127614
vt 0.105469 0.127614
vt 0.105469 0.127614
vt 0.105469 0.127614
vt 0.105469 0.127614
vt 0.105469 0.127614
vt 0.105469 0.127614
vt 0.105469 0.127614
vt 0.105469 0.127614
vt 0.105469 0.127614
vt 0.105469 0.127614
vt 0.105469 0.127614
vt 0.112610 0.379020
vt 0.112610 0.379020
vt 0.112610 0.379020
vt 0.112610 0.379020
vt 0.176279 0.377061
vt 0.176279 0.377061
vt 0.176279 0.377061
vt 0.176279 0.377061
vt 0.176279 0.377061
vt 0.176279 0.377061
vt 0.176279 0.377061
vt 0.176279 0.377061
vt 0.112610 0.379020
vt 0.112610 0.379020
vt 0.112610 0.379020
vt 0.112610 0.379020
vt 0.267374 0.378040
vt 0.267374 0.378040
vt 0.267374 0.378040
vt 0.153665 0.798907
vt 0.153665 0.798907
vt 0.153666 0.798907
vt 0.153666 0.798907
vt 0.153665 0.798907
vt 0.153665 0.798907
vt 0.153666 0.798907
vt 0.153666 0.798907
vt 0.267374 0.378040
vt 0.267374 0.378040
vt 0.267374 0.378040
vt 0.162565 0.376081
vt 0.162565 0.376081
vt 0.162565 0.376081
vt 0.162565 0.376081
vt 0.162565 0.376081
vt 0.162565 0.376081
vt 0.162565 0.376081
vt 0.162565 0.376081
vt 0.230908 0.483305
vt 0.230908 0.483305
vt 0.230908 0.483305
vt 0.230908 0.483305
vt 0.204062 0.089063
vt 0.204062 0.089063
vt 0.204062 0.089063
vt 0.204062 0.089063
vt 0.308871 0.091022
vt 0.308871 0.091022
vt 0.308871 0.091022
vt 0.308871 0.091022
vt 0.204062 0.089063
vt 0.204062 0.089063
vt 0.204062 0.089063
vt 0.204062 0.089063
vt 0.171454 0.084053
vt 0.171454 0.084053
vt 0.171454 0.084053
vt 0.171454 0.084053
vt 0.208802 0.085676
vt 0.208802 0.085676
vt 0.208802 0.085676
vt 0.208802 0.085676
vt 0.293529 0.089259
vt 0.293529 0.089259
vt 0.293529 0.089259
vt 0.293529 0.089259
vt 0.208802 0.085676
vt 0.208802 0.085676
vt 0.208802 0.085676
vt 0.208802 0.085676
vt 0.153666 0.798907
vt 0.153665 0.798907
vt 0.153665 0.798908
vt 0.153666 0.798908
vt 0.162565 0.376081
vt 0.162565 0.376081
vt 0.162565 0.376081
vt 0.162565 0.376081
vt 0.267374 0.378040
vt 0.267374 0.378040
vt 0.267374 0.378040
vt 0.267374 0.378040
vt 0.162565 0.376081
vt 0.162565 0.376081
vt 0.162565 0.376081
vt 0.162565 0.376081
vt 0.229939 0.089457
vt 0.229939 0.089457
vt 0.229939 0.089457
vt 0.229939 0.089457
vt 0.162565 0.376081
vt 0.162565 0.376081
vt 0.162565 0.376081
vt 0.162565 0.376081
vt 0.161738 0.086210
vt 0.161738 0.086210
vt 0.161738 0.086210
vt 0.199086 0.087834
vt 0.199086 0.087834
vt 0.199086 0.087834
vt 0.199086 0.087834
vt 0.294892 0.082962
vt 0.294892 0.082962
vt 0.294892 0.082962
vt 0.294892 0.082962
vt 0.199086 0.087834
vt 0.199086 0.087834
vt 0.199086 0.087834
vt 0.199086 0.087834
vt 0.267374 0.378040
vt 0.267374 0.378040
vt 0.267374 0.378040
vt 0.267374 0.378040
vt 0.267374 0.378040
vt 0.267374 0.378040
vt 0.167579 0.480057
vt 0.167579 0.480057
vt 0.167579 0.480057
vt 0.167579 0.480057
vt 0.167579 0.480057
vt 0.167579 0.480057
vt 0.167579 0.480057
vt 0.167579 0.480057
vt 0.267374 0.378040
vt 0.267374 0.378040
vt 0.267374 0.378040
vt 0.267374 0.378040
vt 0.238676 0.482693
vt 0.238676 0.482693
vt 0.238676 0.482693
vt 0.238676 0.482693
vt 0.238676 0.482693
vt 0.238676 0.482693
vt 0.238676 0.482693
vt 0.238676 0.482693
vt 0.238676 0.482693
vt 0.238676 0.482693
vt 0.238676 0.482693
vt 0.238676 0.482693
vt 0.238676 0.482693
vt 0.238676 0.482693
vt 0.238676 0.482693
vt 0.238676 0.482693
vt 0.197536 0.475836
vt 0.197536 0.475836
vt 0.197536 0.475836
vt 0.197536 0.475836
vt 0.197536 0.475836
vt 0.197536 0.475836
vt 0.197536 0.475836
vt 0.197536 0.475836
vt 0.197536 0.475836
vt 0.197536 0.475836
vt 0.197536 0.475836
vt 0.197536 0.475836
vt 0.267374 0.378040
vt 0.267374 0.378040
vt 0.267374 0.378040
vt 0.267374 0.378040
vt 0.267374 0.378040
vt 0.267374 0.378040
vt 0.267374 0.378040
vt 0.267374 0.378040
vt 0.267374 0.378040
vt 0.267374 0.378040
vt 0.267374 0.378040
vt 0.267374 0.378040
vt 0.267374 0.378040
vt 0.267374 0.378040
vt 0.267374 0.378040
vt 0.267374 0.378040
vt 0.267374 0.378040
vt 0.153666 0.798908
vt 0.153665 0.798908
vt 0.153665 0.798908
vt 0.153666 0.798908
vt 0.267374 0.378040
vt 0.267374 0.378040
vt 0.153665 0.798908
vt 0.153665 0.798907
vt 0.153666 0.798907
vt 0.153666 0.798908
vt 0.267374 0.378040
vt 0.267374 0.378040
vt 0.153665 0.798908
vt 0.153665 0.798908
vt 0.153666 0.798908
vt 0.153666 0.798908
vt 0.267374 0.378040
vt 0.267374 0.378040
vt 0.267374 0.378040
vt 0.267374 0.378040
vt 0.153665 0.798908
vt 0.153665 0.798907
vt 0.153665 0.798907
vt 0.153665 0.798908
vt 0.267374 0.378040
vt 0.267374 0.378040
vt 0.153665 0.798908
vt 0.153665 0.798908
vt 0.153665 0.798908
vt 0.153665 0.798908
vt 0.267374 0.378040
vt 0.267374 0.378040
vt 0.267374 0.378040
vt 0.267374 0.378040
vt 0.267374 0.378040
vt 0.267374 0.378040
vt 0.153665 0.798908
vt 0.153665 0.798907
vt 0.153665 0.798907
vt 0.153665 0.798908
vt 0.267374 0.378040
vt 0.267374 0.378040
vt 0.153665 0.798908
vt 0.153665 0.798908
vt 0.153665 0.798908
vt 0.153665 0.798908
vt 0.267374 0.378040
vt 0.267374 0.378040
vt 0.267374 0.378040
vt 0.267374 0.378040
vt 0.161738 0.086210
vt 0.161738 0.086210
vt 0.267374 0.378040
vt 0.293529 0.089259
vt 0.267374 0.378040
vt 0.267374 0.378040
vt 0.267374 0.378040
vt 0.267374 0.378040
vt 0.267374 0.378040
vt 0.267374 0.378040
vt 0.267374 0.378040
vt 0.267374 0.378040
vt 0.267374 0.378040
vt 0.267374 0.378040
vt 0.267374 0.378040
vt 0.267374 0.378040
vt 0.270176 0.087987
vt 0.264761 0.087987
vt 0.264761 0.087987
vt 0.270176 0.087987
vt 0.192914 0.742487
vt 0.192914 0.742487
vt 0.192914 0.742487
vt 0.192914 0.742487
vt 0.192914 0.742487
vt 0.192914 0.742487
vt 0.192914 0.742487
vt 0.192914 0.742487
vt 0.192914 0.742487
vt 0.192914 0.742487
vt 0.192914 0.742487
vt 0.192914 0.742487
vt 0.192914 0.742487
vt 0.192914 0.742487
vt 0.192914 0.742487
vt 0.192914 0.742487
vt 0.192913 0.742487
vt 0.192913 0.742487
vt 0.192913 0.742487
vt 0.192913 0.742487
vt 0.192914 0.742487
vt 0.192914 0.742487
vt 0.192914 0.742487
vt 0.192914 0.742487
vt 0.192914 0.742487
vt 0.192914 0.742487
vt 0.192914 0.742487
vt 0.192914 0.742487
vt 0.192913 0.742487
vt 0.192913 0.742487
vt 0.192913 0.742487
vt 0.192913 0.742487
vt 0.192914 0.742487
vt 0.192914 0.742487
vt 0.192914 0.742487
vt 0.192914 0.742487
vt 0.192914 0.742487
vt 0.192914 0.742487
vt 0.192914 0.742487
vt 0.192914 0.742487
vt 0.192914 0.742487
vt 0.192914 0.742487
vt 0.192914 0.742487
vt 0.192914 0.742487
vt 0.192914 0.742487
vt 0.192914 0.742487
vt 0.192914 0.742487
vt 0.192914 0.742487
vt 0.192913 0.742487
vt 0.192913 0.742487
vt 0.192913 0.742487
vt 0.192913 0.742487
vt 0.192914 0.742487
vt 0.192914 0.742487
vt 0.192914 0.742487
vt 0.192914 0.742487
vt 0.192914 0.742487
vt 0.192914 0.742487
vt 0.192914 0.742487
vt 0.192914 0.742487
vt 0.192913 0.742487
vt 0.192913 0.742487
vt 0.192913 0.742487
vt 0.192913 0.742487
vt 0.192913 0.742487
vt 0.192913 0.742487
vt 0.192914 0.742487
vt 0.192914 0.742487
vt 0.192914 0.742487
vt 0.192914 0.742487
vt 0.192914 0.742487
vt 0.192914 0.742487
vt 0.192914 0.742487
vt 0.192914 0.742487
vt 0.192914 0.742487
vt 0.192914 0.742487
vt 0.192914 0.742487
vt 0.192914 0.742487
vt 0.192914 0.742487
vt 0.192914 0.742487
vn -1.0000 0.0000 0.0000
vn 0.0000 1.0000 0.0000
vn 1.0000 0.0000 0.0000
vn 0.0000 0.0000 1.0000
vn 0.0000 0.0000 -1.0000
vn -0.0001 -1.0000 0.0001
vn -0.0001 -1.0000 -0.0001
vn -0.0000 -1.0000 -0.0001
vn -0.0000 -1.0000 0.0001
vn 0.0001 -1.0000 0.0001
vn 0.0001 -1.0000 -0.0001
vn 0.0000 -1.0000 0.0000
usemtl lambert44
s 1
f 11/1/1 12/2/1 4/3/1 3/4/1
f 5/5/2 4/6/2 6/7/2
f 5/8/3 6/9/3 9/10/3 10/11/3
f 12/12/4 9/13/4 6/14/4 4/15/4
f 10/16/5 11/17/5 3/18/5 5/19/5
f 10/20/6 9/21/7 13/22/8 14/23/9
f 14/24/9 15/25/9 11/26/10 10/27/6
f 15/25/9 16/28/8 12/29/11 11/26/10
f 16/28/8 13/30/8 9/31/7 12/29/11
f 3/32/2 4/6/2 5/5/2
f 7/33/5 1/34/5 15/35/5 14/36/5
f 1/37/1 2/38/1 16/28/1 15/25/1
f 2/39/4 8/40/4 13/41/4 16/42/4
f 14/43/3 13/44/3 8/45/3 7/46/3
f 26/47/4 25/48/4 27/49/4 28/50/4
f 34/51/4 33/52/4 35/53/4 36/54/4
f 22/55/4 24/56/4 23/57/4 21/58/4
f 30/59/4 29/60/4 25/61/4 26/62/4
f 29/60/4 31/63/4 27/64/4 25/61/4
f 31/63/4 32/65/4 28/66/4 27/64/4
f 32/65/4 30/59/4 26/62/4 28/66/4
f 38/67/4 37/68/4 33/69/4 34/70/4
f 37/68/4 39/71/4 35/72/4 33/69/4
f 39/71/4 40/73/4 36/74/4 35/72/4
f 40/73/4 38/67/4 34/70/4 36/74/4
f 24/75/4 19/76/4 29/77/4 30/78/4
f 19/76/4 20/79/4 31/80/4 29/77/4
f 20/79/4 23/81/4 32/82/4 31/80/4
f 23/81/4 24/75/4 30/78/4 32/82/4
f 17/83/4 22/84/4 37/85/4 38/86/4
f 22/84/4 21/87/4 39/88/4 37/85/4
f 21/87/4 18/89/4 40/90/4 39/88/4
f 18/89/4 17/83/4 38/86/4 40/90/4
f 19/91/12 24/92/12 42/93/12 41/94/12
f 20/95/3 19/96/3 41/97/3 43/98/3
f 17/99/1 18/100/1 45/101/1 44/102/1
f 22/103/12 17/104/12 44/105/12 46/106/12
f 46/106/12 42/93/12 24/92/12 22/103/12
f 41/107/4 42/108/4 47/109/4
f 169/110/4 170/111/4 171/112/4 172/113/4
f 173/114/4 174/115/4 175/116/4 176/117/4
f 46/118/4 44/119/4 49/120/4
f 49/120/4 47/109/4 42/108/4 46/118/4
f 48/121/1 47/122/1 51/123/1 52/124/1
f 49/125/3 50/126/3 54/127/3 53/128/3
f 79/129/2 80/130/2 77/131/2 78/132/2
f 49/133/3 53/134/3 57/135/3 56/136/3
f 53/137/5 51/138/5 58/139/5 57/140/5
f 51/141/1 47/142/1 55/143/1 58/144/1
f 60/145/12 59/146/12 47/147/12 49/148/12
f 49/149/3 56/150/3 61/151/3 60/152/3
f 56/153/2 128/154/2 62/155/2 61/156/2
f 55/157/1 47/158/1 59/159/1 62/160/1
f 153/161/4 154/162/4 155/163/4 156/164/4
f 56/165/3 57/166/3 65/167/3 99/168/3
f 57/169/5 58/170/5 66/171/5 65/172/5
f 58/173/1 55/174/1 98/175/1 66/176/1
f 71/177/4 72/178/4 69/179/4 70/180/4
f 64/181/3 65/167/3 68/182/3
f 66/176/1 63/183/1 67/184/1
f 127/185/12 69/186/12 63/187/12
f 64/188/3 68/189/3 71/190/3 70/191/3
f 68/192/2 67/193/2 72/194/2 71/195/2
f 67/196/1 63/197/1 69/198/1 72/199/1
f 74/200/2 73/201/2 67/202/2 68/203/2
f 68/203/2 65/172/2 75/204/2 74/200/2
f 65/172/2 66/171/2 76/205/2 75/204/2
f 66/171/2 67/202/2 73/201/2 76/205/2
f 78/206/5 77/207/5 73/208/5 74/209/5
f 74/209/1 75/210/1 79/211/1 78/206/1
f 75/210/4 76/212/4 80/213/4 79/211/4
f 76/212/3 73/208/3 77/207/3 80/213/3
f 52/214/5 51/215/5 53/216/5 54/217/5
f 18/218/2 21/219/2 45/220/2
f 23/221/2 43/222/2 45/220/2 21/219/2
f 23/221/2 20/223/2 43/222/2
f 43/222/2 48/224/2 82/225/2 81/226/2
f 50/227/2 45/220/2 83/228/2 84/229/2
f 48/224/2 52/230/2 85/231/2 82/225/2
f 54/232/2 50/227/2 84/229/2 86/233/2
f 85/231/2 52/230/2 54/232/2 86/233/2
f 43/222/2 81/226/2 83/228/2 45/220/2
f 81/234/4 82/235/4 88/236/4 87/237/4
f 84/238/4 83/239/4 89/240/4 90/241/4
f 82/235/1 85/242/1 91/243/1 88/236/1
f 86/244/3 84/238/3 90/241/3 92/245/3
f 92/245/5 91/243/5 85/242/5 86/244/5
f 81/234/4 87/237/4 89/240/4 83/239/4
f 103/246/4 107/247/4 56/248/4
f 56/248/4 99/249/4 102/250/4 94/251/4
f 126/252/4 63/253/4 96/254/4
f 98/255/4 55/256/4 93/257/4 101/258/4
f 63/253/4 98/255/4 97/259/4 96/254/4
f 66/176/1 98/175/1 63/183/1
f 99/168/3 65/167/3 64/181/3
f 100/260/4 99/249/4 64/261/4 95/262/4
f 137/263/4 138/264/4 139/265/4 140/266/4
f 98/255/4 101/258/4 97/259/4
f 102/250/4 99/249/4 100/260/4
f 101/258/4 124/267/4 125/268/4 97/259/4
f 157/269/4 158/270/4 159/271/4 160/272/4
f 105/273/4 104/274/4 102/250/4 100/260/4
f 141/275/4 142/276/4 143/277/4 144/278/4
f 108/279/4 107/247/4 103/246/4 104/274/4
f 109/280/4 108/279/4 104/274/4 105/273/4
f 110/281/4 109/280/4 105/273/4 106/282/4
f 161/283/4 162/284/4 163/285/4 164/286/4
f 113/287/4 112/288/4 108/279/4 109/280/4
f 145/289/4 146/290/4 147/291/4 148/292/4
f 116/293/4 115/294/4 111/295/4 112/288/4
f 117/296/4 116/293/4 112/288/4 113/287/4
f 118/297/4 117/296/4 113/287/4 114/298/4
f 165/299/4 166/300/4 167/301/4 168/302/4
f 121/303/4 120/304/4 116/293/4 117/296/4
f 149/305/4 150/306/4 151/307/4 152/308/4
f 124/267/4 123/309/4 119/310/4 120/304/4
f 125/268/4 124/267/4 120/304/4 121/303/4
f 126/252/4 125/268/4 121/303/4 122/311/4
f 64/261/4 127/312/4 114/298/4 110/281/4
f 114/298/4 127/312/4 118/297/4
f 70/313/12 69/186/12 127/185/12 64/314/12
f 118/297/4 127/312/4 63/253/4 122/311/4
f 122/311/4 63/253/4 126/252/4
f 64/261/4 110/281/4 106/282/4
f 64/261/4 106/282/4 95/262/4
f 55/256/4 119/310/4 123/309/4
f 103/246/4 56/248/4 94/251/4
f 56/248/4 107/247/4 111/295/4 128/315/4
f 55/256/4 123/309/4 93/257/4
f 128/315/4 115/294/4 119/310/4 55/256/4
f 128/315/4 111/295/4 115/294/4
f 62/155/2 128/154/2 55/316/2
f 43/317/4 41/107/4 129/318/4 130/319/4
f 41/107/4 47/109/4 131/320/4 129/318/4
f 47/109/4 48/321/4 132/322/4 131/320/4
f 48/321/4 43/317/4 130/319/4 132/322/4
f 44/119/4 45/323/4 134/324/4 133/325/4
f 45/323/4 50/326/4 135/327/4 134/324/4
f 50/326/4 49/120/4 136/328/4 135/327/4
f 49/120/4 44/119/4 133/325/4 136/328/4
f 61/329/4 62/330/4 59/331/4 60/332/4
f 97/333/4 125/334/4 138/335/4 137/336/4
f 125/334/4 126/337/4 139/338/4 138/335/4
f 126/337/4 96/339/4 140/340/4 139/338/4
f 96/339/4 97/333/4 137/336/4 140/340/4
f 106/341/4 105/342/4 142/343/4 141/344/4
f 105/342/4 100/345/4 143/346/4 142/343/4
f 100/345/4 95/347/4 144/348/4 143/346/4
f 95/347/4 106/341/4 141/344/4 144/348/4
f 114/349/4 113/350/4 146/351/4 145/352/4
f 113/350/4 109/353/4 147/354/4 146/351/4
f 109/353/4 110/355/4 148/356/4 147/354/4
f 110/355/4 114/349/4 145/352/4 148/356/4
f 122/357/4 121/358/4 150/359/4 149/360/4
f 121/358/4 117/361/4 151/362/4 150/359/4
f 117/361/4 118/363/4 152/364/4 151/362/4
f 118/363/4 122/357/4 149/360/4 152/364/4
f 93/365/4 123/366/4 154/367/4 153/368/4
f 123/366/4 124/369/4 155/370/4 154/367/4
f 124/369/4 101/371/4 156/372/4 155/370/4
f 101/371/4 93/365/4 153/368/4 156/372/4
f 104/373/4 103/374/4 158/375/4 157/376/4
f 103/374/4 94/377/4 159/378/4 158/375/4
f 94/377/4 102/379/4 160/380/4 159/378/4
f 102/379/4 104/373/4 157/376/4 160/380/4
f 112/381/4 111/382/4 162/383/4 161/384/4
f 111/382/4 107/385/4 163/386/4 162/383/4
f 107/385/4 108/387/4 164/388/4 163/386/4
f 108/387/4 112/381/4 161/384/4 164/388/4
f 120/389/4 119/390/4 166/391/4 165/392/4
f 119/390/4 115/393/4 167/394/4 166/391/4
f 115/393/4 116/395/4 168/396/4 167/394/4
f 116/395/4 120/389/4 165/392/4 168/396/4
f 130/397/4 129/398/4 170/399/4 169/400/4
f 129/398/4 131/401/4 171/402/4 170/399/4
f 131/401/4 132/403/4 172/404/4 171/402/4
f 132/403/4 130/397/4 169/400/4 172/404/4
f 133/405/4 134/406/4 174/407/4 173/408/4
f 134/406/4 135/409/4 175/410/4 174/407/4
f 135/409/4 136/411/4 176/412/4 175/410/4
f 136/411/4 133/405/4 173/408/4 176/412/4
