# Blender v2.79 (sub 0) OBJ File: ''
# www.blender.org
mtllib road_cell.mtl
o ST_Env_Road_Straight_Untitled
v 0.050000 -0.001948 0.028691
v 0.050000 -0.001948 0.100000
v 0.000000 -0.001948 0.100000
v 0.050000 -0.000000 0.028691
v 0.050000 0.000000 -0.000000
v 0.000000 0.000000 0.000000
v 0.050000 -0.001948 0.031653
v 0.025000 0.000000 -0.000000
v 0.025000 -0.000000 0.028691
v 0.025000 -0.001948 0.028691
v 0.025000 -0.001948 0.031653
v 0.000000 -0.001948 0.031653
v 0.000000 -0.000000 0.028691
v 0.000000 -0.001948 0.028691
v 0.050000 -0.001948 -0.000000
v 0.025000 -0.001948 -0.000000
v 0.000000 -0.001948 -0.000000
v 0.034341 -0.001948 0.100000
v 0.015659 -0.001948 0.100000
v 0.034341 -0.001948 0.097248
v 0.015659 -0.001948 0.097248
v 0.000000 -0.000000 0.025822
v 0.025000 -0.000000 0.025822
v 0.050000 -0.000000 0.025822
v 0.000000 -0.000000 0.025274
v 0.025000 -0.000000 0.025274
v 0.050000 -0.000000 0.025274
v 0.024765 0.000000 -0.000000
v 0.024765 -0.000000 0.025274
v 0.025235 0.000000 -0.000000
v 0.025235 -0.000000 0.025274
vt 0.693189 0.228925
vt 0.693189 0.228925
vt 0.693189 0.228925
vt 0.392471 0.063521
vt 0.392471 0.063521
vt 0.392471 0.063521
vt 0.392471 0.063521
vt 0.660863 0.229708
vt 0.660863 0.229708
vt 0.660863 0.229708
vt 0.660863 0.229708
vt 0.559783 0.228622
vt 0.559783 0.228622
vt 0.559783 0.228622
vt 0.559783 0.228622
vt 0.235371 0.473104
vt 0.235371 0.473104
vt 0.235371 0.473104
vt 0.235371 0.473104
vt 0.292261 0.062429
vt 0.292261 0.062429
vt 0.292261 0.062429
vt 0.292261 0.062429
vt 0.660863 0.229708
vt 0.660863 0.229708
vt 0.235371 0.473104
vt 0.235371 0.473104
vt 0.693189 0.228925
vt 0.693189 0.228925
vt 0.693189 0.228925
vt 0.363953 0.061612
vt 0.363953 0.061612
vt 0.363953 0.061612
vt 0.363953 0.061612
vt 0.363953 0.061612
vt 0.363953 0.061612
vt 0.363953 0.061612
vt 0.363953 0.061612
vt 0.693189 0.228925
vt 0.693189 0.228925
vt 0.693189 0.228925
vt 0.367481 0.478224
vt 0.367481 0.478224
vt 0.367481 0.478224
vt 0.367481 0.478224
vt 0.367481 0.478224
vt 0.367481 0.478224
vt 0.292261 0.062429
vt 0.292261 0.062429
vt 0.292261 0.062429
vt 0.292261 0.062429
vt 0.292261 0.062429
vt 0.292261 0.062429
vt 0.559783 0.228622
vt 0.559783 0.228622
vt 0.559783 0.228622
vt 0.559783 0.228622
vt 0.292261 0.062429
vn 0.0000 1.0000 0.0000
vn 0.0000 0.0000 1.0000
vn -0.0000 0.0000 -1.0000
usemtl labert37
s 1
f 2/1/1 7/2/1 20/3/1
f 21/4/1 19/5/1 18/6/1 20/7/1
f 9/8/2 10/9/2 1/10/2 4/11/2
f 5/12/1 30/13/1 31/14/1 27/15/1
f 7/16/1 1/17/1 10/18/1 11/19/1
f 8/20/1 28/21/1 29/22/1 26/23/1
f 13/24/2 14/25/2 10/9/2 9/8/2
f 12/26/1 11/19/1 10/18/1 14/27/1
f 12/28/1 21/29/1 11/30/1
f 7/2/1 11/30/1 20/3/1
f 11/30/1 21/29/1 20/3/1
f 16/31/3 8/32/3 15/33/3
f 8/32/3 30/34/3 15/33/3
f 30/34/3 5/35/3 15/33/3
f 17/36/3 6/37/3 16/31/3
f 8/32/3 16/31/3 28/38/3
f 6/37/3 28/38/3 16/31/3
f 2/1/1 20/3/1 18/39/1
f 3/40/1 19/41/1 21/29/1
f 3/40/1 21/29/1 12/28/1
f 23/42/1 22/43/1 13/44/1 9/45/1
f 24/46/1 23/42/1 9/45/1 4/47/1
f 26/23/1 29/22/1 23/48/1
f 23/48/1 29/22/1 22/49/1
f 29/22/1 25/50/1 22/49/1
f 27/51/1 31/52/1 24/53/1
f 26/23/1 23/48/1 31/52/1
f 31/52/1 23/48/1 24/53/1
f 29/54/1 28/55/1 6/56/1 25/57/1
f 31/52/1 30/58/1 8/20/1 26/23/1
