# Blender v2.79 (sub 0) OBJ File: ''
# www.blender.org
mtllib road_lane.mtl
o Road_Lane_01
v -8.771401 0.003721 8.144854
v -6.322791 0.003721 8.144854
v -6.322791 0.003723 -8.179226
v -8.771401 0.003723 -8.179226
v -5.996309 0.003723 -8.179226
v -5.996309 0.003721 8.144854
v -0.772604 0.003721 7.328649
v -0.772604 0.003721 4.880036
v -0.772604 0.003721 3.247629
v -0.772604 0.003722 0.799018
v -0.772604 0.003722 -0.833391
v -0.772604 0.003722 -3.282002
v -0.772604 0.003723 -4.914409
v -0.772604 0.003723 -7.363022
v 4.777583 0.003723 -8.179226
v -0.446122 0.003723 -7.363022
v -0.446122 0.003723 -4.914409
v -0.446122 0.003722 -3.282002
v -0.446122 0.003722 -0.833391
v -0.446122 0.003722 0.799018
v -0.446122 0.003721 3.247629
v -0.446122 0.003721 4.880036
v -0.446122 0.003721 7.328649
v 4.777583 0.003721 8.144854
v 5.104064 0.003721 8.144854
v 5.104064 0.003723 -8.179226
v 7.552677 0.003721 8.144854
v 7.552677 0.003723 -8.179226
v -8.771401 0.166961 8.144854
v -8.771401 0.166966 -8.179226
v -6.322791 0.166966 -8.179226
v -6.322791 0.166961 8.144854
v 5.104064 0.166961 8.144854
v 5.104064 0.166966 -8.179226
v 7.552677 0.166966 -8.179226
v 7.552677 0.166961 8.144854
vt 0.217700 0.403700
vt 0.267700 0.403700
vt 0.267700 0.453700
vt 0.217700 0.453700
vt 0.217700 0.403700
vt 0.267700 0.403700
vt 0.267700 0.453700
vt 0.217700 0.453700
vt 0.217700 0.403700
vt 0.267700 0.403700
vt 0.267700 0.453700
vt 0.217700 0.453700
vt 0.217700 0.403700
vt 0.267700 0.403700
vt 0.267700 0.453700
vt 0.217700 0.453700
vt 0.267700 0.453700
vt 0.217700 0.453700
vt 0.217700 0.403700
vt 0.267700 0.403700
vt 0.267700 0.453700
vt 0.217700 0.453700
vt 0.217700 0.403700
vt 0.267700 0.403700
vt 0.267700 0.453700
vt 0.217700 0.453700
vt 0.217700 0.403700
vt 0.267700 0.403700
vt 0.267700 0.453700
vt 0.217700 0.453700
vt 0.217700 0.403700
vt 0.267700 0.403700
vt 0.267700 0.453700
vt 0.217700 0.453700
vt 0.267700 0.453700
vt 0.217700 0.453700
vt 0.495000 0.475000
vt 0.497200 0.478000
vt 0.483300 0.491800
vt 0.475000 0.489700
vt 0.489700 0.491100
vt 0.497500 0.479200
vt 0.500200 0.482500
vt 0.500300 0.482100
vt 0.500200 0.482500
vt 0.500200 0.482500
vt 0.500200 0.482600
vt 0.500200 0.483000
vt 0.500200 0.485000
vt 0.499900 0.486000
vt 0.510400 0.491100
vt 0.499900 0.486400
vt 0.500300 0.486700
vt 0.500200 0.483000
vt 0.500200 0.482500
vt 0.500200 0.482500
vt 0.500200 0.482500
vt 0.500200 0.482000
vt 0.500200 0.483000
vt 0.502800 0.479800
vt 0.565300 0.900400
vt 0.565400 0.902200
vt 0.565000 0.901900
vt 0.565000 0.901400
vt 0.565300 0.898000
vt 0.565300 0.898000
vt 0.565300 0.898000
vt 0.565300 0.897900
vt 0.562400 0.893500
vt 0.562600 0.894700
vt 0.554800 0.906500
vt 0.548400 0.907300
vt 0.565300 0.898000
vt 0.565300 0.898500
vt 0.565300 0.898500
vt 0.565300 0.898000
vt 0.565300 0.898400
vt 0.565400 0.897400
vt 0.565400 0.897600
vt 0.565300 0.898000
vt 0.567900 0.895200
vt 0.568100 0.894000
vt 0.581900 0.907300
vt 0.575500 0.906500
vt 0.503000 0.478600
vt 0.505100 0.475600
vt 0.525000 0.489800
vt 0.516800 0.491800
vn -1.0000 0.0000 0.0000
vn 0.0000 0.0000 -1.0000
vn 1.0000 0.0000 0.0000
vn 0.0000 0.0000 1.0000
vn 0.0000 1.0000 0.0000
usemtl Road
s off
f 29/1/1 30/2/1 4/3/1 1/4/1
f 30/5/2 31/6/2 3/7/2 4/8/2
f 31/9/3 32/10/3 2/11/3 3/12/3
f 32/13/4 29/14/4 1/15/4 2/16/4
f 32/13/5 31/6/5 30/17/5 29/18/5
f 33/19/1 34/20/1 26/21/1 25/22/1
f 34/23/2 35/24/2 28/25/2 26/26/2
f 35/27/3 36/28/3 27/29/3 28/30/3
f 36/31/4 33/32/4 25/33/4 27/34/4
f 36/31/5 35/24/5 34/35/5 33/36/5
s 1
f 1/37/5 2/38/5 3/39/5 4/40/5
f 5/41/5 6/42/5 7/43/5 8/44/5
f 5/41/5 8/44/5 9/45/5 10/46/5
f 5/41/5 10/46/5 11/47/5 12/48/5
f 5/41/5 12/48/5 13/49/5 14/50/5
f 15/51/5 5/41/5 14/50/5 16/52/5
f 15/51/5 16/52/5 17/53/5
f 17/53/5 13/49/5 12/48/5 18/54/5
f 19/55/5 11/47/5 10/46/5 20/56/5
f 21/57/5 9/45/5 8/44/5 22/58/5
f 23/59/5 7/43/5 6/42/5 24/60/5
f 22/58/5 23/59/5 24/60/5 21/57/5
f 20/56/5 21/57/5 24/60/5 19/55/5
f 18/54/5 19/55/5 24/60/5 17/53/5
f 15/51/5 17/53/5 24/60/5
f 13/61/5 17/62/5 16/63/5 14/64/5
f 21/65/5 20/66/5 10/67/5 9/68/5
f 2/69/5 6/70/5 5/71/5 3/72/5
f 19/73/5 18/74/5 12/75/5 11/76/5
f 23/77/5 22/78/5 8/79/5 7/80/5
f 24/81/5 25/82/5 26/83/5 15/84/5
f 25/85/5 27/86/5 28/87/5 26/88/5
