# Blender v2.79 (sub 0) OBJ File: ''
# www.blender.org
mtllib tree3.mtl
o ST_Prop_Tree_medium_Untitled
v 0.175895 -0.014152 -0.241263
v -0.180466 -0.014152 -0.241263
v 0.175895 -0.014153 0.135156
v -0.180466 -0.014153 0.135156
v -0.180466 2.772648 -0.241262
v 0.175895 2.772648 -0.241262
v 0.175895 2.772648 0.135157
v -0.180466 2.772648 0.135157
v -0.958508 2.016364 -0.397968
v 0.089637 2.016364 -0.397968
v 0.089637 2.016364 -1.505110
v -0.958508 2.016364 -1.505110
v -0.958508 3.159245 -0.397968
v 0.089637 3.159245 -0.397968
v 0.089637 3.159245 -1.505110
v -0.958508 3.159245 -1.505110
v 1.052135 2.284876 -0.967009
v 0.044906 2.284876 -0.967009
v 0.044906 2.284875 0.096916
v 1.052135 2.284875 0.096916
v 1.052135 3.383144 -0.967009
v 0.044906 3.383144 -0.967009
v 0.044906 3.383144 0.096916
v 1.052135 3.383144 0.096916
v 0.309752 2.210818 0.430262
v -0.877453 2.210818 0.430262
v -0.877453 2.210817 1.505109
v 0.309752 2.210817 1.505109
v 0.309752 3.320360 0.430263
v -0.877453 3.320360 0.430263
v -0.877453 3.320360 1.505109
v 0.309752 3.320360 1.505109
v 1.009547 1.983407 -0.023696
v -0.072320 1.983407 -0.023695
v -0.072320 1.983407 1.119069
v 1.009547 1.983407 1.119069
v 1.009547 3.163059 -0.023695
v -0.072320 3.163059 -0.023695
v -0.072320 3.163059 1.119069
v 1.009547 3.163059 1.119069
v 0.641429 2.982510 -0.634776
v -0.689660 2.982510 -0.634775
v -0.689660 2.982509 0.771237
v 0.641429 2.982509 0.771237
v 0.641429 4.433909 -0.634775
v -0.689660 4.433909 -0.634775
v -0.689660 4.433909 0.771238
v 0.641429 4.433909 0.771238
v -0.338303 2.062593 0.466647
v -0.338303 2.062593 -0.550923
v -1.413151 2.062593 -0.550923
v -1.413151 2.062593 0.466647
v -0.338303 3.172135 0.466647
v -0.338303 3.172135 -0.550922
v -1.413151 3.172135 -0.550922
v -1.413151 3.172135 0.466647
v 1.413154 1.833051 -0.423617
v 0.494174 1.833051 -0.423617
v 0.494174 1.833050 0.547089
v 1.413154 1.833050 0.547089
v 1.413154 2.835091 -0.423617
v 0.494174 2.835091 -0.423617
v 0.494174 2.835091 0.547090
v 1.413154 2.835091 0.547090
vt 0.229956 0.048248
vt 0.229956 0.048248
vt 0.229956 0.048248
vt 0.229956 0.048248
vt 0.229956 0.048248
vt 0.229956 0.048248
vt 0.229956 0.048248
vt 0.229956 0.048248
vt 0.328297 0.048248
vt 0.328297 0.048248
vt 0.328297 0.048248
vt 0.328297 0.048248
vt 0.328297 0.048248
vt 0.328297 0.048248
vt 0.328297 0.048248
vt 0.328297 0.048248
vt 0.393181 0.153685
vt 0.393181 0.153685
vt 0.393181 0.153685
vt 0.393181 0.153685
vt 0.143267 0.153685
vt 0.143267 0.153685
vt 0.143267 0.153685
vt 0.143267 0.153685
vt 0.263412 0.153685
vt 0.263412 0.153685
vt 0.263412 0.153685
vt 0.263412 0.153685
vt 0.263412 0.153685
vt 0.263412 0.153685
vt 0.194472 0.153685
vt 0.194472 0.153685
vt 0.194472 0.153685
vt 0.194472 0.153685
vt 0.300923 0.153685
vt 0.300923 0.153685
vt 0.300923 0.153685
vt 0.300923 0.153685
vt 0.393181 0.153685
vt 0.393181 0.153685
vt 0.393181 0.153685
vt 0.393181 0.153685
vt 0.143267 0.153685
vt 0.143267 0.153685
vt 0.143267 0.153685
vt 0.143267 0.153685
vt 0.194472 0.153685
vt 0.194472 0.153685
vt 0.194472 0.153685
vt 0.194472 0.153685
vt 0.263412 0.153685
vt 0.263412 0.153685
vt 0.263412 0.153685
vt 0.263412 0.153685
vt 0.194472 0.153685
vt 0.194472 0.153685
vt 0.194472 0.153685
vt 0.194472 0.153685
vt 0.300923 0.153685
vt 0.300923 0.153685
vt 0.300923 0.153685
vt 0.300923 0.153685
vt 0.393181 0.153685
vt 0.393181 0.153685
vt 0.393181 0.153685
vt 0.393181 0.153685
vt 0.143267 0.153685
vt 0.143267 0.153685
vt 0.143267 0.153685
vt 0.143267 0.153685
vt 0.263412 0.153685
vt 0.263412 0.153685
vt 0.263412 0.153685
vt 0.263412 0.153685
vt 0.300923 0.153685
vt 0.300923 0.153685
vt 0.300923 0.153685
vt 0.300923 0.153685
vt 0.194472 0.153685
vt 0.194472 0.153685
vt 0.194472 0.153685
vt 0.194472 0.153685
vt 0.300923 0.153685
vt 0.300923 0.153685
vt 0.300923 0.153685
vt 0.300923 0.153685
vt 0.393181 0.153685
vt 0.393181 0.153685
vt 0.393181 0.153685
vt 0.393181 0.153685
vt 0.143267 0.153685
vt 0.143267 0.153685
vt 0.143267 0.153685
vt 0.143267 0.153685
vt 0.263412 0.153685
vt 0.263412 0.153685
vt 0.263412 0.153685
vt 0.263412 0.153685
vt 0.263412 0.153685
vt 0.263412 0.153685
vt 0.194472 0.153685
vt 0.194472 0.153685
vt 0.194472 0.153685
vt 0.194472 0.153685
vt 0.300923 0.153685
vt 0.300923 0.153685
vt 0.300923 0.153685
vt 0.300923 0.153685
vt 0.393181 0.153685
vt 0.393181 0.153685
vt 0.393181 0.153685
vt 0.393181 0.153685
vt 0.143267 0.153685
vt 0.143267 0.153685
vt 0.143267 0.153685
vt 0.143267 0.153685
vt 0.194472 0.153685
vt 0.194472 0.153685
vt 0.194472 0.153685
vt 0.194472 0.153685
vt 0.300923 0.153685
vt 0.300923 0.153685
vt 0.300923 0.153685
vt 0.300923 0.153685
vt 0.194472 0.153685
vt 0.194472 0.153685
vt 0.194472 0.153685
vt 0.194472 0.153685
vt 0.300923 0.153685
vt 0.300923 0.153685
vt 0.300923 0.153685
vt 0.300923 0.153685
vt 0.393181 0.153685
vt 0.393181 0.153685
vt 0.393181 0.153685
vt 0.393181 0.153685
vt 0.143267 0.153685
vt 0.143267 0.153685
vt 0.143267 0.153685
vt 0.143267 0.153685
vt 0.263412 0.153685
vt 0.263412 0.153685
vt 0.263412 0.153685
vt 0.263412 0.153685
vt 0.194472 0.153685
vt 0.194472 0.153685
vt 0.194472 0.153685
vt 0.194472 0.153685
vt 0.300923 0.153685
vt 0.300923 0.153685
vt 0.300923 0.153685
vt 0.300923 0.153685
vt 0.194472 0.153685
vt 0.194472 0.153685
vt 0.194472 0.153685
vt 0.194472 0.153685
vt 0.393181 0.153685
vt 0.393181 0.153685
vt 0.393181 0.153685
vt 0.393181 0.153685
vt 0.143267 0.153685
vt 0.143267 0.153685
vt 0.143267 0.153685
vt 0.143267 0.153685
vt 0.194472 0.153685
vt 0.194472 0.153685
vt 0.194472 0.153685
vt 0.194472 0.153685
vt 0.263412 0.153685
vt 0.263412 0.153685
vt 0.263412 0.153685
vt 0.263412 0.153685
vt 0.194472 0.153685
vt 0.194472 0.153685
vt 0.194472 0.153685
vt 0.194472 0.153685
vt 0.300923 0.153685
vt 0.300923 0.153685
vt 0.300923 0.153685
vt 0.300923 0.153685
vn 0.0000 0.0000 -1.0000
vn 0.0000 -0.0000 1.0000
vn -1.0000 0.0000 0.0000
vn 1.0000 0.0000 0.0000
vn 0.0000 1.0000 0.0000
vn 0.0000 -1.0000 -0.0000
usemtl lambert94
s 1
f 1/1/1 2/2/1 5/3/1 6/4/1
f 7/5/2 8/6/2 4/7/2 3/8/2
f 2/9/3 4/10/3 8/11/3 5/12/3
f 3/13/4 1/14/4 6/15/4 7/16/4
f 13/17/5 14/18/5 15/19/5 16/20/5
f 11/21/6 10/22/6 9/23/6 12/24/6
f 9/25/2 10/26/2 14/27/2 13/28/2
f 10/26/4 11/29/4 15/30/4 14/27/4
f 11/31/1 12/32/1 16/33/1 15/34/1
f 12/35/3 9/36/3 13/37/3 16/38/3
f 21/39/5 22/40/5 23/41/5 24/42/5
f 19/43/6 18/44/6 17/45/6 20/46/6
f 17/47/1 18/48/1 22/49/1 21/50/1
f 18/51/3 19/52/3 23/53/3 22/54/3
f 19/55/2 20/56/2 24/57/2 23/58/2
f 20/59/4 17/60/4 21/61/4 24/62/4
f 29/63/5 30/64/5 31/65/5 32/66/5
f 27/67/6 26/68/6 25/69/6 28/70/6
f 25/71/1 26/72/1 30/73/1 29/74/1
f 26/75/3 27/76/3 31/77/3 30/78/3
f 27/79/2 28/80/2 32/81/2 31/82/2
f 28/83/4 25/84/4 29/85/4 32/86/4
f 37/87/5 38/88/5 39/89/5 40/90/5
f 35/91/6 34/92/6 33/93/6 36/94/6
f 33/95/1 34/96/1 38/97/1 37/98/1
f 34/96/3 35/99/3 39/100/3 38/97/3
f 35/101/2 36/102/2 40/103/2 39/104/2
f 36/105/4 33/106/4 37/107/4 40/108/4
f 45/109/5 46/110/5 47/111/5 48/112/5
f 43/113/6 42/114/6 41/115/6 44/116/6
f 41/117/1 42/118/1 46/119/1 45/120/1
f 42/121/3 43/122/3 47/123/3 46/124/3
f 43/125/2 44/126/2 48/127/2 47/128/2
f 44/129/4 41/130/4 45/131/4 48/132/4
f 53/133/5 54/134/5 55/135/5 56/136/5
f 51/137/6 50/138/6 49/139/6 52/140/6
f 49/141/4 50/142/4 54/143/4 53/144/4
f 50/145/1 51/146/1 55/147/1 54/148/1
f 51/149/3 52/150/3 56/151/3 55/152/3
f 52/153/2 49/154/2 53/155/2 56/156/2
f 61/157/5 62/158/5 63/159/5 64/160/5
f 59/161/6 58/162/6 57/163/6 60/164/6
f 57/165/1 58/166/1 62/167/1 61/168/1
f 58/169/3 59/170/3 63/171/3 62/172/3
f 59/173/2 60/174/2 64/175/2 63/176/2
f 60/177/4 57/178/4 61/179/4 64/180/4
